<svg id="BACKGROUND" xmlns="http://www.w3.org/2000/svg" viewBox="0 0 68 68"><defs><style>.cls-1{fill:none;stroke:#fff;stroke-miterlimit:10;}.cls-2{fill:#fff;}</style></defs><circle class="cls-1" cx="34" cy="34" r="26.25"/><path class="cls-2" d="M49.62,33.19A15.32,15.32,0,0,0,19,32.9c0,.23,0,.45,0,.67a15.12,15.12,0,0,0,2.08,7.67.21.21,0,0,1,0,.19l-2.71,8a.14.14,0,0,0,.18.18L26.9,47a.2.2,0,0,1,.17,0,15.47,15.47,0,0,0,7.24,1.8A15.29,15.29,0,0,0,49.63,33.57C49.63,33.46,49.62,33.19,49.62,33.19Zm-15,9.86a2.93,2.93,0,0,1-.1.5,3.37,3.37,0,0,1-.26.61,2,2,0,0,1-.48.59,2.66,2.66,0,0,1-.8.45,3.25,3.25,0,0,1-1.16.18,3.41,3.41,0,0,1-1-.13,2.22,2.22,0,0,1-.78-.4,1.75,1.75,0,0,1-.5-.68,2.52,2.52,0,0,1-.18-1,3.12,3.12,0,0,1,.16-1,2.35,2.35,0,0,1,.49-.84,2.31,2.31,0,0,1,.85-.59,3.12,3.12,0,0,1,1.24-.22,2.72,2.72,0,0,1,1.89.58,2.05,2.05,0,0,1,.64,1.63S34.64,42.9,34.63,43.05ZM40.5,29.34a7.34,7.34,0,0,1-1,2,8,8,0,0,1-1.37,1.47c-.5.43-1,.84-1.5,1.25s-1,.82-1.43,1.26a5.63,5.63,0,0,0-1.1,1.53,2.36,2.36,0,0,1-.64,1.09,1.31,1.31,0,0,1-.9.37,1.82,1.82,0,0,1-.92-.22.8.8,0,0,1-.4-.75,6,6,0,0,1,.44-2.37,7.74,7.74,0,0,1,1.1-1.8,13.16,13.16,0,0,1,1.43-1.46,17,17,0,0,0,1.43-1.38,7.27,7.27,0,0,0,1.1-1.55,4.2,4.2,0,0,0,.44-2A2.39,2.39,0,0,0,37,25.7a2.2,2.2,0,0,0-.6-.71,2.34,2.34,0,0,0-.82-.41,3.09,3.09,0,0,0-.89-.13,1.48,1.48,0,0,0-.72.21,5.11,5.11,0,0,0-.71.51,4.49,4.49,0,0,0-.56.61,2,2,0,0,0-.3.5,1.59,1.59,0,0,1-.58.47,1.56,1.56,0,0,1-.67.15,1.09,1.09,0,0,1-.56-.16,1.58,1.58,0,0,1-.48-.42,2.39,2.39,0,0,1-.35-.63,2.28,2.28,0,0,1-.13-.8,1.18,1.18,0,0,1,.22-.65,6.09,6.09,0,0,1,1.06-1.15,7.1,7.1,0,0,1,1.33-.84,6.89,6.89,0,0,1,1.47-.5,6.6,6.6,0,0,1,1.51-.17,6.7,6.7,0,0,1,1.93.29,5.66,5.66,0,0,1,1.84.91,4.91,4.91,0,0,1,1.38,1.58,4.57,4.57,0,0,1,.54,2.27A8.6,8.6,0,0,1,40.5,29.34Z"/></svg>