<svg id="BACKGROUND" xmlns="http://www.w3.org/2000/svg" viewBox="0 0 68 68"><defs><style>.cls-1,.cls-3{fill:none;}.cls-1{stroke:#fff;stroke-miterlimit:10;}.cls-2{fill:#fff;}</style></defs><rect class="cls-1" x="7.75" y="7.75" width="52.5" height="52.5" rx="7.2"/><path class="cls-2" d="M34,26.49A7.51,7.51,0,1,0,41.5,34,7.51,7.51,0,0,0,34,26.49Z"/><path class="cls-3" d="M34,24.09A9.91,9.91,0,1,0,43.91,34,9.93,9.93,0,0,0,34,24.09Z"/><path class="cls-2" d="M43.88,20H24.12a4.28,4.28,0,0,0-4.27,4.27V43.73A4.28,4.28,0,0,0,24.12,48H43.88a4.28,4.28,0,0,0,4.27-4.27V24.27A4.28,4.28,0,0,0,43.88,20ZM26.06,47.46ZM34,43.9A9.91,9.91,0,1,1,43.91,34,9.92,9.92,0,0,1,34,43.9Zm9.72-17.79a1.83,1.83,0,1,1,1.83-1.83A1.82,1.82,0,0,1,43.72,26.11Z"/></svg>