<svg id="BACKGROUND" xmlns="http://www.w3.org/2000/svg" viewBox="0 0 68 68"><defs><style>.cls-1{fill:#fff;}.cls-2{fill:none;stroke:#fff;stroke-miterlimit:10;}</style></defs><path class="cls-1" d="M46.89,27.54c0,.28,0,.56,0,.84a18.21,18.21,0,0,1-.45,3.92,19.07,19.07,0,0,1-6,10.11,18.4,18.4,0,0,1-12.37,4.46A18.84,18.84,0,0,1,18,44a13.64,13.64,0,0,0,1.57.09,13.41,13.41,0,0,0,8.12-2.71,0,0,0,0,0,0-.07,6.62,6.62,0,0,1-6-4.46,0,0,0,0,1,.05,0,6.56,6.56,0,0,0,1.18.11,7.09,7.09,0,0,0,1.74-.23,6.68,6.68,0,0,1-4.85-4,8.76,8.76,0,0,1-.44-2.38s0,0,.05,0a6.76,6.76,0,0,0,2.79.78,0,0,0,0,0,0-.08,6.44,6.44,0,0,1-2.82-5.33,6.51,6.51,0,0,1,.86-3.22s.05,0,.06,0a18.89,18.89,0,0,0,13.58,6.75A6.61,6.61,0,0,1,45.1,23.18a13.4,13.4,0,0,0,4-1.44.1.1,0,0,1,.15.12,6.6,6.6,0,0,1-2.82,3.34,13.71,13.71,0,0,0,3.47-.89.1.1,0,0,1,.12.15A13.29,13.29,0,0,1,46.89,27.54Z"/><rect class="cls-2" x="7.75" y="7.75" width="52.5" height="52.5" rx="7.2"/></svg>